# xmcd
#
# Track frame offsets:
#	150
#	13876
#	27744
#	40452
#	49652
#	64059
#	77306
#	97320
#	108274
#	121808
#	135537
#	151139
#	166649
#	180805
#	195494
#	213545
#	227432
#	233098
#	243256
#	256770
#	273340
#	287416
#	301273
#	317499
#	325363
#
# Disc length: 4491 seconds
#
# Revision: 0
# Processed by: cddbd v1.5.2PL0 Copyright (c) Steve Scherf et al.
# Submitted via: dBpowerAMP V4.0
#
DISCID=41118919
DTITLE=Various Artist - American Murder Ballads [CD1 Of 2]
DYEAR=2009
DGENRE=Country
TTITLE0=Ramblin' Jack Elliot-/ Pretty Boy Floyd
TTITLE1=The Kingston Trio-/ Tom Dooley
TTITLE2=Johnny Cash-/ Folsom Prison Blues
TTITLE3=Woody Guthrie-/ Billy The Kid
TTITLE4=Josh White-/ John Henry
TTITLE5=Edward L. Crain-/ Bandit Cole The Younger
TTITLE6=Pete Seeger-/ Jesse James
TTITLE7=Burl Ives-/ The Streets Of Laredo
TTITLE8=Frank Hutchison-/ Stackalee
TTITLE9=Lead Belly-/ Where Did You Sleep Last Night
TTITLE10=Dick Justice-/ Henry Lee
TTITLE11=Mississippi John Hurt-/ Frankie And Johnny
TTITLE12=Blind Willie McTell-/ Dying Crapshooter's Blues
TTITLE13=Richard Burnett and Leonard Rut-/ Willie Moore
TTITLE14=Brownie McGhee-/ Betty And Dupree
TTITLE15=Kelly Harrell-/ Charles Giteau
TTITLE16=Paul Clayton-/ Spotty And Dudie
TTITLE17=Woody Guthrie-/ Bad Lee Brown (Cocaine Blues)
TTITLE18=Bob Miller-/ Fingerprints (Upon The Window)
TTITLE19=The Blue Sky Boys-/ Story Of The Knoxville Girl
TTITLE20=Roy Harvey-/ The Bluefield Murder
TTITLE21=Victoria Spivey-/ Murder In The First Degree
TTITLE22=Pete Seeger-/ Pretty Polly
TTITLE23=Cisco Houston-/ Railroad Bill
TTITLE24=Woody Guthrie-/ Slipknot
EXTD=
EXTT0=
EXTT1=
EXTT2=
EXTT3=
EXTT4=
EXTT5=
EXTT6=
EXTT7=
EXTT8=
EXTT9=
EXTT10=
EXTT11=
EXTT12=
EXTT13=
EXTT14=
EXTT15=
EXTT16=
EXTT17=
EXTT18=
EXTT19=
EXTT20=
EXTT21=
EXTT22=
EXTT23=
EXTT24=
PLAYORDER=
